name rise38.3101peak57.3503fall81.6963.mot
datacolumns 19
datarows 14
range 21.83158900000000 21.85326000000000
endheader
time	ground_force1_vx	ground_force1_vy	ground_force1_vz	ground_force1_px	ground_force1_py	ground_force1_pz	ground_force2_vx	ground_force2_vy	ground_force2_vz	ground_force2_px	ground_force2_py	ground_force2_pz	ground_torque1_x	ground_torque1_y	ground_torque1_z	ground_torque2_x	ground_torque2_y	ground_torque2_z	
21.83158900000000	-53.51566200000000	795.21431399999994	57.94310200000000	0.13953600000000	0.00000000000000	0.09342900000000	-9.03280900000000	39.21109300000000	7.58783300000000	0.37823500000000	0.00000000000000	-0.07855100000000	0.00000000000000	25.77282700000000	0.00000000000000	0.00000000000000	4.77943500000000	0.00000000000000	
21.83325600000000	-53.28256200000000	791.12811599999998	57.54957700000000	0.13911100000000	0.00000000000000	0.09347700000000	-9.89704700000000	45.60585200000000	8.47247800000000	0.37970700000000	0.00000000000000	-0.07970600000000	0.00000000000000	25.55616900000000	0.00000000000000	0.00000000000000	5.37544700000000	0.00000000000000	
21.83493100000000	-53.05280300000000	786.92341799999997	57.12379900000000	0.13869800000000	0.00000000000000	0.09352000000000	-10.59056200000000	51.99684600000000	9.25591300000000	0.38125700000000	0.00000000000000	-0.08076000000000	0.00000000000000	25.33532000000000	0.00000000000000	0.00000000000000	5.92056700000000	0.00000000000000	
21.83658500000000	-52.82724700000000	782.60294699999997	56.66599900000000	0.13829800000000	0.00000000000000	0.09355900000000	-11.08983800000000	58.29808900000000	9.91846400000000	0.38287700000000	0.00000000000000	-0.08172700000000	0.00000000000000	25.11058700000000	0.00000000000000	0.00000000000000	6.40278800000000	0.00000000000000	
21.83825400000000	-52.60673400000000	778.16945599999997	56.17646900000000	0.13791200000000	0.00000000000000	0.09359400000000	-11.38152500000000	64.44808800000000	10.44772900000000	0.38455700000000	0.00000000000000	-0.08261600000000	0.00000000000000	24.88227300000000	0.00000000000000	0.00000000000000	6.81418600000000	0.00000000000000	
21.83992500000000	-52.39208400000000	773.62572100000000	55.65556400000000	0.13754100000000	0.00000000000000	0.09362400000000	-11.46222500000000	70.41143599999999	10.83858200000000	0.38629000000000	0.00000000000000	-0.08343600000000	0.00000000000000	24.65068400000000	0.00000000000000	0.00000000000000	7.15098500000000	0.00000000000000	
21.84158400000000	-52.18409100000000	768.97452299999998	55.10370200000000	0.13718500000000	0.00000000000000	0.09364800000000	-11.33750800000000	76.17798000000001	11.09258300000000	0.38806700000000	0.00000000000000	-0.08419400000000	0.00000000000000	24.41611700000000	0.00000000000000	0.00000000000000	7.41327300000000	0.00000000000000	
21.84325400000000	-51.98352000000000	764.21864300000004	54.52135600000000	0.13684600000000	0.00000000000000	0.09366800000000	-11.02034300000000	81.76005400000000	11.21693200000000	0.38988200000000	0.00000000000000	-0.08489700000000	0.00000000000000	24.17886800000000	0.00000000000000	0.00000000000000	7.60445900000000	0.00000000000000	
21.84492400000000	-51.79110500000000	759.36085300000002	53.90906000000000	0.13652400000000	0.00000000000000	0.09368200000000	-10.52920000000000	87.18832500000001	11.22314800000000	0.39172600000000	0.00000000000000	-0.08555100000000	0.00000000000000	23.93922200000000	0.00000000000000	0.00000000000000	7.73053600000000	0.00000000000000	
21.84659000000000	-51.60754500000000	754.40390500000001	53.26740300000000	0.13622000000000	0.00000000000000	0.09369000000000	-9.88601600000000	92.50684200000001	11.12560800000000	0.39359200000000	0.00000000000000	-0.08616000000000	0.00000000000000	23.69746200000000	0.00000000000000	0.00000000000000	7.79927700000000	0.00000000000000	
21.84825300000000	-51.43350200000000	749.35052299999995	52.59702800000000	0.13593600000000	0.00000000000000	0.09369200000000	-9.11422600000000	97.76783500000001	10.94011800000000	0.39547400000000	0.00000000000000	-0.08672800000000	0.00000000000000	23.45385500000000	0.00000000000000	0.00000000000000	7.81940500000000	0.00000000000000	
21.84992600000000	-51.26959600000000	744.20339400000000	51.89863200000000	0.13567100000000	0.00000000000000	0.09368800000000	-8.23700200000000	103.02673200000000	10.68259900000000	0.39736500000000	0.00000000000000	-0.08726100000000	0.00000000000000	23.20866400000000	0.00000000000000	0.00000000000000	7.79983000000000	0.00000000000000	
21.85158600000000	-51.11640100000000	738.96516199999996	51.17296200000000	0.13542600000000	0.00000000000000	0.09367700000000	-7.27581600000000	108.33775300000001	10.36799700000000	0.39926000000000	0.00000000000000	-0.08775900000000	0.00000000000000	22.96213600000000	0.00000000000000	0.00000000000000	7.74900100000000	0.00000000000000	
21.85326000000000	-50.97444500000000	733.63841800000000	50.42081300000000	0.13520200000000	0.00000000000000	0.09365900000000	-6.24936800000000	113.75031799999999	10.00944600000000	0.40115100000000	0.00000000000000	-0.08822800000000	0.00000000000000	22.71450800000000	0.00000000000000	0.00000000000000	7.67439300000000	0.00000000000000	
